<svg width="63" height="42" viewBox="0 0 63 42" fill="none" xmlns="http://www.w3.org/2000/svg">
<g clip-path="url(#clip0_42_153)">
<path d="M32.7805 35.4646C31.2069 31.6628 28.6699 30.1861 25.6833 29.652C30.5004 29.3063 34.322 27.7354 34.322 22.991C34.322 17.4298 29.0874 16.2358 23.1142 16.2358H16.1133C16.3381 18.7494 16.4023 20.1004 16.4023 22.7083V34.899C16.4023 37.5068 16.3381 38.8579 16.1133 41.3714H21.091C20.8662 38.8579 20.802 37.5068 20.802 34.899V29.7462H21.7011C24.8805 29.7462 26.4862 30.6574 28.2524 35.6845C29.8582 40.3346 32.9732 41.3714 38.7217 41.3714V40.8373C35.7993 40.8373 34.3862 39.4863 32.7805 35.4646ZM20.802 29.1492V16.8328H23.0821C26.5825 16.8328 29.8582 18.0896 29.8582 22.991C29.8582 27.8925 26.5825 29.1492 23.0821 29.1492H20.802Z" fill="white"/>
<path d="M62.486 30.783C61.0408 37.0355 57.4761 40.7116 52.1773 40.7116C45.5618 40.7116 42.5752 34.9932 42.5752 28.2066C42.5752 21.42 45.7224 16.2044 50.8927 16.2044C54.7143 16.2044 56.7375 19.5349 57.6046 23.8707L61.8116 22.7082C59.6278 18.3095 56.0952 15.6074 50.8927 15.6074C43.667 15.6074 37.8223 20.666 37.8223 28.4894C37.8223 36.3129 42.8 41.9998 50.9891 41.9998C57.6688 41.9998 61.4262 37.6325 62.9998 30.783H62.486Z" fill="white"/>
<mask id="mask0_42_153" style="mask-type:luminance" maskUnits="userSpaceOnUse" x="12" y="7" width="4" height="7">
<path d="M15.3264 12.7695L15.1738 12.3349L14.9972 11.8295L14.8179 11.3164L14.5476 10.544L14.2291 9.62756L13.8973 8.81589L13.6404 7.93876L13.4557 7.55388C13.3594 7.27634 13.0971 7.09306 12.8188 7.1716C12.5405 7.25015 12.3933 7.53817 12.4923 7.81832C12.4923 7.82618 12.5726 8.00684 12.701 8.29747C12.784 8.48599 12.8857 8.71901 13.0008 8.98084C13.1212 9.25576 13.255 9.55949 13.3942 9.87892C13.4798 10.0753 13.5976 10.2612 13.6859 10.4654C13.7635 10.6435 13.8143 10.8372 13.8919 11.0153C14.015 11.2928 14.1622 11.5494 14.2746 11.806C14.387 12.06 14.462 12.3139 14.5556 12.5234C14.6225 12.6726 14.6814 12.8114 14.7323 12.9292C14.8661 13.2303 14.9464 13.4188 14.949 13.4267C15.1096 13.7645 15.602 13.6047 15.4923 13.2487L15.3237 12.7695H15.3264Z" fill="white"/>
</mask>
<g mask="url(#mask0_42_153)">
<path d="M9.87476 9.08899L6.58301 12.1196L9.8714 15.5385L13.1631 12.5078L9.87476 9.08899Z" fill="#FF9D00"/>
<path d="M13.1619 12.5099L9.87012 15.5405L13.1585 18.9594L16.4503 15.9287L13.1619 12.5099Z" fill="#FF9D00"/>
<path d="M13.1643 6.05969L9.87256 9.09033L13.1609 12.5092L16.4527 9.47854L13.1643 6.05969Z" fill="#FF9D00"/>
<path d="M16.4539 9.47717L13.1621 12.5078L16.4505 15.9267L19.7422 12.896L16.4539 9.47717Z" fill="#FF9D00"/>
<path d="M16.4563 3.02991L13.1646 6.06055L16.4529 9.47939L19.7447 6.44875L16.4563 3.02991Z" fill="#FF9D00"/>
</g>
<mask id="mask1_42_153" style="mask-type:luminance" maskUnits="userSpaceOnUse" x="19" y="7" width="4" height="7">
<path d="M20.1624 13.0417L20.3578 12.5914L20.5585 12.196L20.7913 11.7378L21.0509 11.2875L21.4069 10.5858L21.8297 9.75315L22.1856 8.96505L22.579 8.18742L22.7904 7.85227C22.9189 7.60092 22.8092 7.25269 22.5442 7.1113C22.2793 6.96991 21.9822 7.11653 21.8538 7.36789C21.8511 7.37313 21.7548 7.52499 21.6397 7.80776C21.5648 7.98842 21.4738 8.21622 21.3694 8.47019C21.2623 8.73464 21.1847 9.06454 21.0616 9.37612C20.984 9.56725 20.8609 9.72959 20.7806 9.92596C20.7111 10.0988 20.6843 10.3056 20.6147 10.4784C20.505 10.7481 20.3551 10.9785 20.2534 11.2273C20.1544 11.4734 20.0607 11.7038 19.9778 11.908C19.9189 12.0546 19.8654 12.1855 19.8172 12.3007C19.6995 12.594 19.6245 12.7747 19.6218 12.7825C19.4987 13.1177 19.9831 13.3559 20.1571 13.0417H20.1624Z" fill="white"/>
</mask>
<g mask="url(#mask1_42_153)">
<path d="M16.4543 9.47717L13.1626 12.5078L16.451 15.9267L19.7427 12.896L16.4543 9.47717Z" fill="#FF9D00"/>
<path d="M19.7434 12.8966L16.4517 15.9272L19.74 19.3461L23.0318 16.3155L19.7434 12.8966Z" fill="#FF9D00"/>
<path d="M19.7458 6.44934L16.4541 9.47998L19.7425 12.8988L23.0342 9.86818L19.7458 6.44934Z" fill="#FF9D00"/>
<path d="M23.0349 9.86584L19.7432 12.8965L23.0316 16.3153L26.3233 13.2847L23.0349 9.86584Z" fill="#FF9D00"/>
<path d="M23.0369 3.41858L19.7451 6.44922L23.0335 9.86806L26.3253 6.83742L23.0369 3.41858Z" fill="#FF9D00"/>
</g>
<mask id="mask2_42_153" style="mask-type:luminance" maskUnits="userSpaceOnUse" x="5" y="12" width="7" height="4">
<path d="M5.88738 13.4893L6.2674 13.6909L7.14786 13.9947L7.95607 14.3691L8.87133 14.7356L9.64474 15.0472L10.1559 15.2541L10.6617 15.4557L11.0952 15.6311L11.5743 15.8248C11.9302 15.9558 12.1229 15.4818 11.7884 15.3064C11.7803 15.3038 11.5957 15.2122 11.2959 15.0629C11.1782 15.0053 11.0417 14.9372 10.8918 14.8639C10.6831 14.7618 10.4289 14.6702 10.1773 14.5471C9.92307 14.4214 9.6715 14.2617 9.39318 14.1256C9.21655 14.0392 9.02119 13.9789 8.84456 13.8899C8.64385 13.7904 8.45919 13.6648 8.26383 13.5679C7.94537 13.4108 7.64296 13.2615 7.36999 13.128C7.10772 12.9997 6.87489 12.8845 6.69024 12.7929C6.39853 12.6489 6.21923 12.5625 6.21388 12.5598C5.93555 12.4472 5.63315 12.5729 5.53413 12.84C5.43779 13.1071 5.60638 13.3715 5.88471 13.4841L5.88738 13.4893Z" fill="white"/>
</mask>
<g mask="url(#mask2_42_153)">
<path d="M3.29419 8.70032L0.00244141 11.731L3.29083 15.1498L6.58258 12.1192L3.29419 8.70032Z" fill="#FF9D00"/>
<path d="M6.58325 12.1193L3.2915 15.1499L6.57989 18.5687L9.87164 15.5381L6.58325 12.1193Z" fill="#FF9D00"/>
<path d="M9.87036 15.5402L6.57861 18.5708L9.867 21.9896L13.1587 18.959L9.87036 15.5402Z" fill="#FF9D00"/>
<path d="M9.87476 9.0885L6.58301 12.1191L9.8714 15.538L13.1631 12.5073L9.87476 9.0885Z" fill="#FF9D00"/>
<path d="M13.1619 12.5094L9.87012 15.54L13.1585 18.9589L16.4503 15.9282L13.1619 12.5094Z" fill="#FF9D00"/>
</g>
<mask id="mask3_42_153" style="mask-type:luminance" maskUnits="userSpaceOnUse" x="6" y="19" width="7" height="4">
<path d="M12.1848 19.6187C12.1848 19.6187 11.9895 19.6815 11.6817 19.781C11.5613 19.8203 11.4221 19.8648 11.2696 19.9119C11.0555 19.98 10.8146 20.0586 10.5577 20.1397C10.2981 20.2235 10.0546 20.357 9.77361 20.4461C9.59431 20.5037 9.38289 20.5168 9.20091 20.5744C8.99484 20.6398 8.82089 20.7524 8.62285 20.8152C8.29903 20.92 7.95648 20.9723 7.68084 21.0614C7.41322 21.1478 7.17771 21.2237 6.9877 21.2839C6.69065 21.3782 6.53275 21.4646 6.5274 21.4672C6.26246 21.5772 6.09654 21.8573 6.22499 22.1244C6.35345 22.3915 6.70135 22.5198 6.9663 22.4098L7.31955 22.2239L8.13579 21.8861L8.96273 21.585L9.83784 21.2237L10.5765 20.92L11.0528 20.6922L11.5345 20.4932L11.9493 20.323L12.4204 20.1581C12.7495 20.0088 12.5381 19.5192 12.1875 19.6213L12.1848 19.6187Z" fill="white"/>
</mask>
<g mask="url(#mask3_42_153)">
<path d="M6.5813 18.5665L3.28955 21.5972L6.57794 25.016L9.86969 21.9854L6.5813 18.5665Z" fill="#FF9D00"/>
<path d="M9.86841 21.9874L6.57666 25.0181L9.86505 28.4369L13.1568 25.4063L9.86841 21.9874Z" fill="#FF9D00"/>
<path d="M9.87085 15.5402L6.5791 18.5708L9.86749 21.9896L13.1592 18.959L9.87085 15.5402Z" fill="#FF9D00"/>
<path d="M13.1599 18.9591L9.86816 21.9897L13.1566 25.4086L16.4483 22.378L13.1599 18.9591Z" fill="#FF9D00"/>
</g>
<mask id="mask4_42_153" style="mask-type:luminance" maskUnits="userSpaceOnUse" x="2" y="16" width="11" height="2">
<path d="M8.13806 17.9066L9.27277 17.8647L10.0355 17.8804L10.8035 17.959L11.4512 17.9721L12.1657 17.9852C12.6876 17.9799 12.6876 17.2468 12.1657 17.1814C12.155 17.1814 11.8687 17.1526 11.4084 17.108C11.2264 17.0897 11.0257 17.1264 10.7955 17.1028C10.4744 17.0714 10.1024 16.9797 9.71434 16.9431C9.32361 16.9038 8.91416 16.9195 8.49132 16.8776C8.22103 16.8515 7.94003 16.7677 7.66706 16.7415C7.35662 16.7101 7.04618 16.6813 6.74645 16.6498C6.25671 16.6027 5.79105 16.5556 5.37357 16.5163C4.97214 16.477 4.61353 16.443 4.32718 16.4142C3.88026 16.3697 3.59926 16.388 3.58856 16.388C3.17375 16.3802 2.91683 16.608 2.87401 17.0662C2.83655 17.4694 3.23798 17.8097 3.65278 17.8176L4.24422 17.8097L5.52076 17.8359L6.76251 17.8621L8.13806 17.9092V17.9066Z" fill="white"/>
</mask>
<g mask="url(#mask4_42_153)">
<path d="M3.29175 15.1505L0 18.1812L3.28839 21.6L6.58014 18.5694L3.29175 15.1505Z" fill="#FF9D00"/>
<path d="M6.58325 12.1197L3.2915 15.1504L6.57989 18.5692L9.87164 15.5386L6.58325 12.1197Z" fill="#FF9D00"/>
<path d="M9.87036 15.5406L6.57861 18.5713L9.867 21.9901L13.1587 18.9595L9.87036 15.5406Z" fill="#FF9D00"/>
<path d="M13.1614 12.5099L9.86963 15.5405L13.158 18.9594L16.4498 15.9287L13.1614 12.5099Z" fill="#FF9D00"/>
</g>
<mask id="mask5_42_153" style="mask-type:luminance" maskUnits="userSpaceOnUse" x="16" y="3" width="3" height="11">
<path d="M16.75 6.33609C16.7661 6.74716 16.7848 7.20536 16.8036 7.68713C16.8143 7.983 16.8276 8.28672 16.841 8.59044C16.8517 8.85751 16.9186 9.13766 16.9293 9.40211C16.9454 9.81842 16.9079 10.2164 16.9213 10.6013C16.9374 10.9836 17.0069 11.3501 17.0203 11.6669C17.0284 11.8921 16.9802 12.0859 16.9882 12.2639C17.007 12.7169 17.0177 12.9996 17.0177 13.0101C17.0524 13.5233 17.7991 13.5678 17.8392 13.0572L17.8687 12.3582L17.8954 11.7245L17.8607 10.9678L17.8928 10.2216L18.0025 9.11672L18.0373 7.77091L18.0881 6.55865L18.139 5.31234L18.1845 4.73632C18.2005 4.3331 17.8767 3.91941 17.4646 3.92988C16.9936 3.94297 16.7447 4.18124 16.7286 4.58707C16.7286 4.59755 16.6938 4.86985 16.7126 5.30972C16.7233 5.58988 16.7367 5.94073 16.7527 6.33609H16.75Z" fill="white"/>
</mask>
<g mask="url(#mask5_42_153)">
<path d="M16.4539 9.47717L13.1621 12.5078L16.4505 15.9267L19.7422 12.896L16.4539 9.47717Z" fill="#FF9D00"/>
<path d="M16.4558 3.02991L13.1641 6.06055L16.4525 9.47939L19.7442 6.44875L16.4558 3.02991Z" fill="#FF9D00"/>
<path d="M19.7454 6.44885L16.4536 9.47949L19.742 12.8983L23.0337 9.8677L19.7454 6.44885Z" fill="#FF9D00"/>
<path d="M19.7473 -0.000858117L16.4556 3.02979L19.744 6.44863L23.0357 3.41799L19.7473 -0.000858117Z" fill="#FF9D00"/>
</g>
<mask id="mask6_42_153" style="mask-type:luminance" maskUnits="userSpaceOnUse" x="6" y="7" width="8" height="8">
<path d="M13.2711 13.4606L12.8322 12.9684L12.3558 12.4054L11.8046 11.8163L11.0472 10.8999L10.148 9.8395L9.305 8.89691L8.41383 7.94909L8.00437 7.49089C7.72338 7.1767 7.24969 7.12957 6.94461 7.38616C6.63952 7.64275 6.5967 8.10881 6.8777 8.423C6.88305 8.43086 7.08109 8.64294 7.40759 8.96237C7.619 9.1666 7.90536 9.41795 8.19974 9.70335C8.5075 9.99921 8.85005 10.3317 9.20866 10.6774C9.43078 10.8921 9.66361 11.091 9.89108 11.3136C10.0918 11.5073 10.2925 11.7011 10.4905 11.8922C10.8037 12.1933 11.1087 12.4866 11.3951 12.7641C11.6814 13.039 11.9464 13.2956 12.1846 13.5234C12.3532 13.6858 12.5057 13.835 12.6395 13.9633C12.9794 14.2906 13.1881 14.4948 13.1962 14.5027C13.5896 14.8614 14.1195 14.377 13.7769 13.9685L13.2684 13.4658L13.2711 13.4606Z" fill="white"/>
</mask>
<g mask="url(#mask6_42_153)">
<path d="M6.58325 12.1197L3.2915 15.1504L6.57989 18.5692L9.87164 15.5386L6.58325 12.1197Z" fill="#FF9D00"/>
<path d="M6.5852 5.67004L3.29346 8.70068L6.58185 12.1195L9.87359 9.08889L6.5852 5.67004Z" fill="#FF9D00"/>
<path d="M9.87476 9.08899L6.58301 12.1196L9.8714 15.5385L13.1631 12.5078L9.87476 9.08899Z" fill="#FF9D00"/>
<path d="M13.1619 12.5099L9.87012 15.5405L13.1585 18.9594L16.4503 15.9287L13.1619 12.5099Z" fill="#FF9D00"/>
<path d="M9.87671 2.64172L6.58496 5.67236L9.87335 9.09121L13.1651 6.06057L9.87671 2.64172Z" fill="#FF9D00"/>
<path d="M13.1638 6.06018L9.87207 9.09082L13.1605 12.5097L16.4522 9.47902L13.1638 6.06018Z" fill="#FF9D00"/>
<path d="M16.4539 9.47717L13.1621 12.5078L16.4505 15.9267L19.7422 12.896L16.4539 9.47717Z" fill="#FF9D00"/>
</g>
</g>
<defs>
<clipPath id="clip0_42_153">
<rect width="63" height="42" fill="white"/>
</clipPath>
</defs>
</svg>
